<?xml version="1.0" standalone="no"?>
<svg xmlns:xlink="http://www.w3.org/1999/xlink" id="wave" style="transform:rotate(180deg); transition: 0.3s" viewBox="0 0 1440 490" version="1.1" xmlns="http://www.w3.org/2000/svg"><defs><linearGradient id="sw-gradient-0" x1="0" x2="0" y1="1" y2="0"><stop stop-color="rgba(7, 161, 96, 1)" offset="0%"/><stop stop-color="rgba(0, 171, 140, 1)" offset="100%"/></linearGradient></defs><path style="transform:translate(0, 0px); opacity:1" fill="url(#sw-gradient-0)" d="M0,147L48,130.7C96,114,192,82,288,89.8C384,98,480,147,576,147C672,147,768,98,864,114.3C960,131,1056,212,1152,228.7C1248,245,1344,196,1440,196C1536,196,1632,245,1728,253.2C1824,261,1920,229,2016,245C2112,261,2208,327,2304,326.7C2400,327,2496,261,2592,228.7C2688,196,2784,196,2880,187.8C2976,180,3072,163,3168,196C3264,229,3360,310,3456,343C3552,376,3648,359,3744,343C3840,327,3936,310,4032,261.3C4128,212,4224,131,4320,138.8C4416,147,4512,245,4608,261.3C4704,278,4800,212,4896,212.3C4992,212,5088,278,5184,285.8C5280,294,5376,245,5472,212.3C5568,180,5664,163,5760,163.3C5856,163,5952,180,6048,187.8C6144,196,6240,196,6336,220.5C6432,245,6528,294,6624,294C6720,294,6816,245,6864,220.5L6912,196L6912,490L6864,490C6816,490,6720,490,6624,490C6528,490,6432,490,6336,490C6240,490,6144,490,6048,490C5952,490,5856,490,5760,490C5664,490,5568,490,5472,490C5376,490,5280,490,5184,490C5088,490,4992,490,4896,490C4800,490,4704,490,4608,490C4512,490,4416,490,4320,490C4224,490,4128,490,4032,490C3936,490,3840,490,3744,490C3648,490,3552,490,3456,490C3360,490,3264,490,3168,490C3072,490,2976,490,2880,490C2784,490,2688,490,2592,490C2496,490,2400,490,2304,490C2208,490,2112,490,2016,490C1920,490,1824,490,1728,490C1632,490,1536,490,1440,490C1344,490,1248,490,1152,490C1056,490,960,490,864,490C768,490,672,490,576,490C480,490,384,490,288,490C192,490,96,490,48,490L0,490Z"/></svg>