<svg xmlns="http://www.w3.org/2000/svg" viewBox="0 0 96 96" fill="#FFF" stroke-miterlimit="10" stroke-width="2">
	<path stroke="#979593" d="M67.1716,7H27c-1.1046,0-2,0.8954-2,2v78 c0,1.1046,0.8954,2,2,2h58c1.1046,0,2-0.8954,2-2V26.8284c0-0.5304-0.2107-1.0391-0.5858-1.4142L68.5858,7.5858 C68.2107,7.2107,67.702,7,67.1716,7z"/>
	<path fill="none" stroke="#979593" d="M67,7v18c0,1.1046,0.8954,2,2,2h18"/>
	<path fill="none" stroke="#C8C6C4" d="M77,55H37v22c0,1.1046,0.8954,2,2,2h38 c1.1046,0,2-0.8954,2-2V57C79,55.8954,78.1046,55,77,55z"/>
	<path fill="none" stroke="#C8C6C4" d="M64,39H34v16h32V41C66,39.8954,65.1046,39,64,39z"/>
	<path fill="#C8C6C4" d="M39,74h16c1.1046,0,2-0.8954,2-2V61c0-1.1046-0.8954-2-2-2H39V74z"/>
	<path fill="#7DBAB2" d="M72 74H62c-.5523 0-1-.4477-1-1l0 0c0-.5523.4477-1 1-1h10c.5523 0 1 .4477 1 1l0 0C73 73.5523 72.5523 74 72 74zM72 68H62c-.5523 0-1-.4477-1-1l0 0c0-.5523.4477-1 1-1h10c.5523 0 1 .4477 1 1l0 0C73 67.5523 72.5523 68 72 68zM72 62H62c-.5523 0-1-.4477-1-1l0 0c0-.5523.4477-1 1-1h10c.5523 0 1 .4477 1 1l0 0C73 61.5523 72.5523 62 72 62zM59 51H46c-.5523 0-1-.4477-1-1l0 0c0-.5523.4477-1 1-1h13c.5523 0 1 .4477 1 1l0 0C60 50.5523 59.5523 51 59 51zM59 45H46c-.5523 0-1-.4477-1-1l0 0c0-.5523.4477-1 1-1h13c.5523 0 1 .4477 1 1l0 0C60 44.5523 59.5523 45 59 45z"/>
	<path fill="#077568" d="M12,74h32c2.2091,0,4-1.7909,4-4V38c0-2.2091-1.7909-4-4-4H12c-2.2091,0-4,1.7909-4,4v32 C8,72.2091,9.7909,74,12,74z"/>
	<path d="M29.8541,42c2.9554,0,5.2196,0.6626,6.7895,1.9849C38.2145,45.3081,39,47.2246,39,49.7332 c0,1.6109-0.3888,3.0433-1.1653,4.2971c-0.7765,1.2548-1.8814,2.2299-3.3134,2.9262C33.0892,57.6518,31.429,58,29.5426,58 h-4.5436v9H20V42H29.8541z M24.9991,54h3.9666c1.5464,0,2.7144-0.3491,3.5051-1.0453c0.7897-0.6972,1.1841-1.715,1.1841-3.0536 c0-2.6004-1.5133-3.9011-4.5416-3.9011h-4.1142V54z"/>
</svg>